<svg width="83" height="96" viewBox="0 0 83 96" fill="none" xmlns="http://www.w3.org/2000/svg">
<path d="M66.1637 7.35166C63.9364 5.11899 61.0143 4 58.0922 4C55.1701 4 52.248 5.11899 50.0206 7.35166L41.2119 16.1816L32.854 7.80244C30.6266 5.56977 27.7045 4.45078 24.7824 4.45078C21.8603 4.45078 18.9382 5.56977 16.7108 7.80244C13.4122 10.8041 13.3645 15.8422 13.3645 15.8422L13.3433 49.2686C13.3433 51.496 14.616 52.8218 16.7533 52.8218H26.7499C29.2318 52.8218 30.1334 50.9922 30.1334 49.7671V37.2037C33.7873 40.6826 37.9663 44.6707 38.7353 45.445C39.4565 46.1715 40.2467 46.8821 41.2861 46.914C41.3127 46.914 42.3256 47.1738 44.1287 45.3707C44.9984 44.4957 48.9228 40.5819 52.6086 36.9014V49.7671C52.6086 50.9975 53.5101 52.8218 55.9868 52.8218H65.9834C68.1153 52.8218 69.3934 51.4907 69.3934 49.2686C69.3934 49.2686 69.4146 15.5929 69.4146 15.3967C69.4252 12.4534 68.4017 9.59494 66.1637 7.35166Z" fill="white"/>
<path d="M66.1637 7.35166C63.9364 5.11899 61.0143 4 58.0922 4C55.1701 4 52.248 5.11899 50.0206 7.35166L41.2119 16.1816L32.854 7.80244C30.6266 5.56977 27.7045 4.45078 24.7824 4.45078C21.8603 4.45078 18.9382 5.56977 16.7108 7.80244C13.4122 10.8041 13.3645 15.8422 13.3645 15.8422L13.3433 49.2686C13.3433 51.496 14.616 52.8218 16.7533 52.8218H26.7499C29.2318 52.8218 30.1334 50.9922 30.1334 49.7671V37.2037C33.7873 40.6826 37.9663 44.6707 38.7353 45.445C39.4565 46.1715 40.2467 46.8822 41.2861 46.914C41.3127 46.914 42.3256 47.1738 44.1287 45.3707C44.9984 44.4957 48.9228 40.5819 52.6086 36.9014V49.7671C52.6086 50.9975 53.5101 52.8218 55.9868 52.8218H65.9834C68.1153 52.8218 69.3934 51.4907 69.3934 49.2686C69.3934 49.2686 69.4146 15.5929 69.4146 15.3967C69.4252 12.4534 68.4017 9.59494 66.1637 7.35166Z" stroke="white" stroke-width="6.7" stroke-miterlimit="10"/>
<path d="M66.7681 17.9582C66.8158 17.7938 66.8635 17.6241 66.9006 17.4544C66.9006 17.4544 66.9006 17.4544 66.9006 17.4491C66.9006 17.4491 66.9006 17.4491 66.9006 17.4544C66.8635 17.6241 66.8158 17.7885 66.7681 17.9582Z" fill="#475658"/>
<path d="M64.4026 9.2078C64.2382 9.0434 64.0632 8.88961 63.8882 8.74112C64.0632 8.89491 64.2382 9.0434 64.4026 9.2078C66.1262 10.9314 67.0754 13.2224 67.0754 15.6566C67.0754 15.7891 67.0542 15.9217 67.0383 16.0543C67.0542 15.9217 67.0754 15.7945 67.0754 15.6566C67.0754 13.2224 66.1262 10.9314 64.4026 9.2078Z" fill="#475658"/>
<path d="M64.4717 22.0258C64.4451 22.0523 64.4239 22.0788 64.3974 22.1053L61.1943 25.3085C59.6616 26.4434 57.7737 27.0692 55.8592 27.0692C55.3342 27.0692 54.8197 27.0055 54.3159 26.9154C53.2394 26.7298 52.2264 26.3373 51.2931 25.7752C51.2294 25.7381 51.1552 25.7062 51.0915 25.6691C50.7521 25.4517 50.4445 25.1971 50.137 24.932C49.9407 24.7676 49.7339 24.6297 49.5483 24.4494L49.2566 24.1577L48.0846 22.9857L42.8927 17.7938L51.4893 9.19719C53.2128 7.47363 55.5038 6.52435 57.938 6.52435C61.8625 6.52435 64.2277 9.03279 64.3921 9.19719C65.177 9.98207 65.7922 10.8889 66.2376 11.87C66.3596 12.1405 66.471 12.4163 66.5665 12.692C66.89 13.6307 67.065 14.6277 67.065 15.646C67.0703 15.7944 67.3089 19.1938 64.4717 22.0258ZM66.996 48.9186C66.996 50.1012 66.5505 50.324 65.7285 50.324H55.8751C54.8781 50.324 54.65 49.8148 54.6341 49.4118V34.8809H54.6288C57.2486 32.2611 64.1694 25.3403 65.6172 23.8925C66.1581 23.3516 66.6036 22.7894 66.9907 22.2273V48.9186H66.996ZM42.7124 43.61C41.8851 44.4373 41.5828 44.5275 41.4555 44.5169C41.2699 44.5116 40.9358 44.1934 40.3577 43.6843C35.7651 39.6803 18.678 22.5561 18.678 22.5561C13.677 16.7808 16.9545 11.3768 18.678 9.65327C20.4016 7.92971 22.6926 6.98043 25.1321 6.98043C27.5716 6.98043 29.8626 7.92971 31.5809 9.65327L47.9732 26.0456C50.6249 28.6973 54.3371 29.8799 56.4956 29.8799C52.8575 33.4914 44.0647 42.2524 42.7124 43.61ZM28.3087 49.4065C28.3087 49.6186 28.2186 50.3187 27.0678 50.3187H17.2143C16.3923 50.3187 15.9468 50.0959 15.9468 48.9133V22.5561C15.9787 22.5932 16.0052 22.6197 16.0052 22.6197C16.3605 23.1182 16.7264 23.6061 17.1772 24.0516L24.7609 31.6353L24.729 31.6671C24.7503 31.6883 25.2223 32.1338 25.9806 32.8497L28.314 35.1832V49.4065H28.3087ZM65.9035 7.70697C63.708 5.51142 60.8283 4.41365 57.9487 4.41365C55.069 4.41365 52.1946 5.51142 49.9938 7.70697L41.3123 16.3884L33.0764 8.15245C30.8808 5.9569 28.0011 4.85912 25.1215 4.85912C22.2418 4.85912 19.3621 5.9569 17.1666 8.15245C13.9157 11.1064 13.8733 16.0596 13.8733 16.0596H13.8521V48.9186C13.8521 51.1088 15.1089 52.4134 17.209 52.4134H27.0625C29.5073 52.4134 30.3929 50.6156 30.3929 49.4065V37.0552C33.9938 40.4758 38.1092 44.4002 38.8728 45.1586C39.5835 45.8692 40.363 46.5693 41.3866 46.6011C41.4131 46.6011 42.4154 46.8609 44.1867 45.0843C45.0458 44.2252 48.9066 40.375 52.5446 36.7529V49.4065C52.5446 50.6156 53.4303 52.4134 55.8751 52.4134H65.7285C67.8339 52.4134 69.0855 51.1088 69.0855 48.9186C69.0855 48.9186 69.1067 15.8104 69.1067 15.6194C69.1173 12.7239 68.1097 9.91313 65.9035 7.70697Z" fill="#475658"/>
<path d="M66.248 11.8806C66.37 12.1511 66.4814 12.4269 66.5768 12.7027C66.4814 12.4216 66.37 12.1458 66.248 11.8806Z" fill="#D44B4B"/>
<path d="M48.0899 22.9963L49.2672 24.1683L42.9033 17.8044L48.0899 22.9963Z" fill="#D44B4B"/>
<path d="M67.0703 15.6566C67.0703 14.633 66.8953 13.6413 66.5718 12.7026C66.4763 12.4216 66.3649 12.1458 66.243 11.8806C65.7975 10.8995 65.1823 9.99268 64.3974 9.2078C64.233 9.0434 61.8572 6.53496 57.9487 6.53496C55.5092 6.53496 53.2182 7.48424 51.4946 9.2078L42.9033 17.8044L49.2672 24.1683L49.5589 24.46C49.7392 24.6403 49.9514 24.7782 50.1476 24.9426C50.4552 25.2024 50.7681 25.4623 51.1022 25.6744C51.1658 25.7168 51.2401 25.7434 51.3037 25.7805C52.2371 26.3373 53.25 26.7351 54.3265 26.9207C54.8357 27.0108 55.3448 27.0692 55.8698 27.0692C57.7843 27.0692 59.6722 26.4434 61.2049 25.3085C61.2049 25.3085 64.4558 22.0523 64.477 22.0258C67.3089 19.1938 67.0703 15.7944 67.0703 15.6566Z" fill="#D44B4B"/>
<path d="M57.9487 6.53496C58.2298 6.53496 58.2298 6.53496 57.9487 6.53496C55.5092 6.53496 53.2182 7.48424 51.4946 9.2078L42.9033 17.8044L51.4999 9.2078C53.2235 7.48424 55.5145 6.53496 57.9487 6.53496Z" fill="#475658"/>
<path d="M64.4028 22.1106C64.4293 22.0841 64.4506 22.0576 64.4771 22.0311C64.4453 22.0523 64.424 22.0841 64.4028 22.1106Z" fill="#475658"/>
<path d="M63.5065 8.43352C63.4428 8.38579 63.3792 8.34337 63.3156 8.29564C64.477 9.8601 65.1134 11.7375 65.1134 13.7209C65.1134 13.9171 65.124 15.2747 64.53 16.8604C64.0792 18.0855 63.3898 19.2204 62.4405 20.1749L59.2373 23.3781C57.7047 24.5183 55.8167 25.1388 53.9023 25.1388C53.3772 25.1388 52.8628 25.0751 52.359 24.9903C51.2825 24.8047 50.2695 24.4069 49.3362 23.8501C49.2725 23.813 49.1983 23.7812 49.1346 23.744C48.7952 23.5266 48.4876 23.272 48.1801 23.0069C48.0369 22.8902 47.8937 22.7788 47.7505 22.6622L48.0899 23.0016L49.2619 24.1736L49.5536 24.4653C49.7339 24.6456 49.946 24.7835 50.1423 24.9479C50.4499 25.2077 50.7627 25.4676 51.0968 25.685C51.1605 25.7275 51.2347 25.754 51.2984 25.7911C52.2317 26.3479 53.2447 26.7457 54.3212 26.9313C54.8303 27.0214 55.3394 27.0798 55.8645 27.0798C57.7789 27.0798 59.6669 26.454 61.1995 25.3191L64.4027 22.1159C67.3248 19.1938 67.0756 15.8634 67.0756 15.6672C67.0756 13.233 66.1263 10.942 64.4027 9.2184C64.1163 8.92673 63.8194 8.67217 63.5065 8.43352Z" fill="#D44B4B"/>
<path d="M12.4202 79.3222H10.6967C10.4315 79.3222 10.2936 79.2055 10.2936 78.9722V71.5158C10.2936 71.4362 10.2565 71.4362 10.177 71.5158L9.21707 74.0614L7.50942 78.479C7.44578 78.6062 7.37684 78.707 7.29729 78.7813C7.21774 78.8608 7.10107 78.8979 6.94727 78.8979H5.87071C5.71161 78.8979 5.58964 78.882 5.49418 78.8502C5.39873 78.8184 5.31386 78.7176 5.23431 78.5479L3.57441 74.178L2.64103 71.5635C2.62512 71.5476 2.6039 71.537 2.58268 71.5264C2.55617 71.5211 2.54557 71.5317 2.54557 71.5635V78.9722C2.54557 79.2055 2.40238 79.3222 2.12661 79.3222H0.418962C0.137889 79.3222 0 79.1896 0 78.9244V65.3693C0 65.0564 0.164413 64.9026 0.493215 64.9026H1.94099C2.12661 64.9026 2.2751 64.9185 2.37587 64.9504C2.47663 64.9822 2.57738 65.0989 2.66754 65.3004C2.71527 65.4224 2.80543 65.6557 2.93801 65.9898C3.07059 66.3239 3.22438 66.7163 3.39408 67.1565C3.56379 67.602 3.74941 68.074 3.94563 68.5725C4.14185 69.071 4.31686 69.543 4.48126 69.9831C4.64566 70.4286 4.79415 70.8158 4.92673 71.1499C5.05931 71.484 5.14947 71.712 5.1972 71.8393L6.34271 74.8993C6.40635 75.0531 6.47529 75.0531 6.55484 74.8993C6.58666 74.7879 6.6556 74.5864 6.76696 74.2894C6.87303 73.9924 6.99501 73.6795 7.11698 73.356C7.24426 73.0272 7.36093 72.7196 7.467 72.4226C7.57306 72.1257 7.65261 71.9241 7.70034 71.8128L10.2247 65.2951C10.352 65.0299 10.5959 64.8973 10.9565 64.8973H12.3513C12.6801 64.8973 12.8445 65.0511 12.8445 65.364V78.9191C12.8445 79.1896 12.7013 79.3222 12.4202 79.3222Z" fill="#475658"/>
<path d="M20.301 70.6779L19.7389 67.9891C19.723 67.9255 19.6965 67.8937 19.6594 67.883C19.6222 67.8724 19.5904 67.9096 19.5798 67.9891L19.0442 70.6301L18.3176 73.9712C18.3017 74.0507 18.3017 74.1038 18.3176 74.1356C18.3335 74.1674 18.3866 74.1833 18.482 74.1833H20.9109C21.0647 74.1833 21.1124 74.1038 21.0488 73.95L20.301 70.6779ZM24.9732 78.829C25.005 78.9085 25.0104 79.0093 24.9838 79.1313C24.9573 79.2532 24.8406 79.3169 24.6232 79.3169H22.7299C22.4807 79.3169 22.3269 79.2161 22.2633 79.0146L21.7276 76.6759C21.6958 76.5539 21.6587 76.4637 21.6216 76.4213C21.5844 76.3736 21.5155 76.3524 21.42 76.3524H17.9623C17.835 76.3524 17.7608 76.3842 17.729 76.4478C17.6972 76.5114 17.6653 76.5804 17.6335 76.6599C17.6017 76.7819 17.5646 76.9516 17.5168 77.1638C17.4691 77.3759 17.4214 77.5986 17.3631 77.8426C17.31 78.0865 17.257 78.3146 17.2093 78.532C17.1615 78.7494 17.1244 78.9138 17.0926 79.0252C17.0608 79.1366 17.0024 79.2108 16.9176 79.2585C16.8327 79.3063 16.7426 79.3275 16.6471 79.3275H14.8493C14.6319 79.3275 14.5046 79.2797 14.4622 79.1843C14.425 79.0888 14.4197 78.9828 14.4516 78.8555L17.8616 65.2314C17.9411 65.014 18.1055 64.9026 18.3548 64.9026H21.017C21.1231 64.9026 21.2185 64.9132 21.2981 64.9397C21.3776 64.9663 21.4306 65.0511 21.4625 65.2102L24.9732 78.829Z" fill="#475658"/>
<path d="M35.0918 67.1247H29.8787C29.7249 67.1247 29.6242 67.1565 29.5764 67.2201C29.5287 67.2838 29.5075 67.3686 29.5075 67.4747V78.9509C29.5075 79.2002 29.3802 79.3222 29.1363 79.3222H27.3331C27.0839 79.3222 26.9619 79.2055 26.9619 78.9722V65.2791C26.9619 65.0299 27.0839 64.9026 27.3331 64.9026H35.0971C35.1926 64.9026 35.2774 64.9291 35.3517 64.9822C35.4312 65.0352 35.4683 65.1253 35.4683 65.2526V66.7694C35.463 67.008 35.3411 67.1247 35.0918 67.1247Z" fill="#475658"/>
<path d="M41.8694 70.6779L41.3073 67.9891C41.2914 67.9255 41.2648 67.8937 41.2277 67.883C41.1906 67.8724 41.1588 67.9096 41.1482 67.9891L40.6125 70.6301L39.886 73.9712C39.8701 74.0507 39.8701 74.1038 39.886 74.1356C39.9019 74.1674 39.9549 74.1833 40.0504 74.1833H42.4793C42.6331 74.1833 42.6808 74.1038 42.6172 73.95L41.8694 70.6779ZM46.5416 78.829C46.5734 78.9085 46.5787 79.0093 46.5522 79.1313C46.531 79.2532 46.409 79.3169 46.1916 79.3169H44.2983C44.049 79.3169 43.8952 79.2161 43.8316 79.0146L43.296 76.6759C43.2642 76.5539 43.227 76.4637 43.1899 76.4213C43.1528 76.3736 43.0839 76.3524 42.9884 76.3524H39.5307C39.4034 76.3524 39.3291 76.3842 39.2973 76.4478C39.2655 76.5114 39.2337 76.5804 39.2019 76.6599C39.1701 76.7819 39.1329 76.9516 39.0852 77.1638C39.0375 77.3759 38.9897 77.5986 38.9314 77.8426C38.8784 78.0865 38.8253 78.3146 38.7776 78.532C38.7299 78.7494 38.6928 78.9138 38.6609 79.0252C38.6291 79.1366 38.5708 79.2108 38.4859 79.2585C38.4011 79.3063 38.3109 79.3275 38.2155 79.3275H36.4177C36.2002 79.3275 36.0729 79.2797 36.0305 79.1843C35.9934 79.0888 35.9881 78.9828 36.0199 78.8555L39.4299 65.2314C39.5095 65.014 39.6739 64.9026 39.9231 64.9026H42.5854C42.6967 64.9026 42.7869 64.9132 42.8664 64.9397C42.946 64.961 42.999 65.0511 43.0308 65.2102L46.5416 78.829Z" fill="#475658"/>
<path d="M52.5711 64.6693C53.3029 64.6693 53.9552 64.7647 54.5227 64.961C55.0901 65.1572 55.5674 65.4223 55.9493 65.7565C56.3311 66.0906 56.6228 66.4989 56.8243 66.9709C57.0258 67.4482 57.1266 67.9626 57.1266 68.5247C57.1266 69.1611 56.9569 69.7604 56.6122 70.3119C56.2675 70.8635 55.8273 71.2506 55.2811 71.4681C55.2492 71.484 55.228 71.5052 55.2227 71.537C55.2121 71.5688 55.228 71.6006 55.2599 71.6325C55.8379 71.8181 56.3364 72.1999 56.766 72.778C57.1955 73.356 57.4077 74.0401 57.4077 74.8356C57.4077 75.5675 57.2804 76.2198 57.0311 76.7872C56.7819 77.3547 56.4319 77.8373 55.9811 78.235C55.5303 78.6328 54.9947 78.935 54.3795 79.1472C53.7643 79.3593 53.0908 79.4654 52.359 79.4654C51.9082 79.4654 51.4574 79.4336 51.0066 79.3699C50.5559 79.3063 50.1263 79.1949 49.7232 79.0305C49.3149 78.8661 48.9384 78.654 48.5883 78.3888C48.2383 78.1236 47.9361 77.7789 47.6868 77.36C47.6232 77.238 47.5966 77.1319 47.6073 77.0418C47.6126 76.9569 47.6815 76.8668 47.8035 76.7713L49.0444 75.8592C49.1823 75.7637 49.299 75.7266 49.3838 75.7425C49.4687 75.7584 49.5748 75.8379 49.702 75.9758C49.9354 76.2887 50.2854 76.5539 50.7521 76.7713C51.2188 76.9887 51.7173 77.1001 52.2476 77.1001C52.9635 77.1001 53.5469 76.9039 53.9871 76.5168C54.4325 76.1296 54.6553 75.6046 54.6553 74.9523C54.6553 74.2364 54.4272 73.6848 53.9765 73.2924C53.5257 72.9052 52.9476 72.709 52.2476 72.709H50.7521C50.5028 72.709 50.3756 72.5764 50.3756 72.3113V70.9536C50.3756 70.8158 50.3968 70.7097 50.4445 70.6407C50.4922 70.5718 50.593 70.5347 50.7468 70.5347H52.4969C53.059 70.5347 53.5204 70.3703 53.8863 70.0415C54.2522 69.7127 54.4378 69.2778 54.4378 68.7316C54.4378 68.2967 54.2681 67.9043 53.934 67.5649C53.5999 67.2201 53.059 67.0504 52.3112 67.0504C51.9824 67.0504 51.6112 67.1247 51.1922 67.2732C50.7733 67.4217 50.3809 67.6656 50.0255 68.0103C49.9301 68.0899 49.8187 68.1694 49.6861 68.2543C49.5535 68.3391 49.4263 68.3285 49.299 68.2172L48.2224 67.2361C48.0845 67.1406 48.0156 67.0451 48.0209 66.9444C48.0315 66.8436 48.0633 66.7535 48.127 66.6739C48.6732 65.9421 49.3255 65.4223 50.0892 65.1201C50.8581 64.8231 51.6855 64.6693 52.5711 64.6693Z" fill="#475658"/>
<path d="M59.98 65.3004C59.98 65.0352 60.1285 64.9026 60.4255 64.9026H62.1543C62.4354 64.9026 62.5733 65.0352 62.5733 65.3004V74.0613C62.5733 74.1091 62.5839 74.1303 62.6104 74.1197C62.6369 74.1144 62.6528 74.0932 62.6687 74.0613C63.4801 72.6136 64.2756 71.1605 65.0552 69.7021C65.8348 68.2437 66.6197 66.8012 67.4151 65.3693C67.5053 65.2155 67.6061 65.0988 67.7174 65.0193C67.8235 64.9397 67.9773 64.9026 68.1788 64.9026H69.4781C69.7539 64.9026 69.8971 65.0352 69.8971 65.3004V78.9244C69.8971 79.1896 69.7592 79.3222 69.4781 79.3222H67.7652C67.4894 79.3222 67.3462 79.1896 67.3462 78.9244V70.1635C67.3462 70.1157 67.3356 70.0945 67.325 70.0945H67.3038L67.2826 70.1422C66.4871 71.6059 65.6863 73.0696 64.8855 74.5333C64.0847 75.997 63.2839 77.4607 62.4884 78.9244C62.3771 79.11 62.2763 79.2267 62.1861 79.2638C62.0907 79.301 61.9422 79.3222 61.7407 79.3222H60.4308C60.1338 79.3222 59.9853 79.1896 59.9853 78.9244V65.3004H59.98Z" fill="#475658"/>
<path d="M80.1005 65.2526C80.1005 65.0193 80.2331 64.9026 80.4982 64.9026H82.2961C82.593 64.9026 82.7415 65.014 82.7415 65.2314V78.951C82.7415 79.2002 82.6036 79.3222 82.3226 79.3222H80.5247C80.2437 79.3222 80.1058 79.2055 80.1058 78.9722V73.478C80.1058 73.2128 79.9732 73.0803 79.7081 73.0803H75.9003C75.7306 73.0803 75.6192 73.1174 75.5715 73.1863C75.5238 73.2553 75.5026 73.356 75.5026 73.478V78.9457C75.5026 79.1949 75.3594 79.3169 75.0836 79.3169H73.2858C72.9888 79.3169 72.8403 79.2002 72.8403 78.9669V65.2473C72.8403 65.014 72.9888 64.8973 73.2858 64.8973H75.0836C75.2109 64.8973 75.3116 64.9185 75.3859 64.9663C75.4654 65.014 75.5026 65.0989 75.5026 65.2261V70.3438C75.5026 70.5135 75.5238 70.6301 75.5609 70.6832C75.598 70.7362 75.6882 70.7627 75.8314 70.7627H79.7346C79.8725 70.7627 79.9732 70.7362 80.0262 70.6832C80.0793 70.6301 80.1058 70.5135 80.1058 70.3438V65.2526H80.1005Z" fill="#475658"/>
<path d="M21.1492 92.3841H20.2476C20.0885 92.3841 20.009 92.3046 20.009 92.1455L19.9241 90.5651C19.9135 90.353 19.8817 90.1408 19.8286 89.9446C19.7756 89.7484 19.6908 89.5681 19.5741 89.4196C19.4574 89.2658 19.293 89.1491 19.0915 89.0643C18.89 88.9794 18.6301 88.937 18.3278 88.937C17.7975 88.937 17.3892 89.0961 17.1134 89.4143C16.8376 89.7325 16.6997 90.109 16.6997 90.5545V92.2197C16.6997 92.3311 16.6414 92.3894 16.53 92.3894H15.4959C15.3845 92.3894 15.3262 92.3364 15.3262 92.2356V85.0868C15.3262 84.9755 15.3792 84.9171 15.48 84.9171H16.5353C16.6361 84.9171 16.6891 84.9702 16.6891 85.0709V87.7385C16.6891 87.8657 16.7156 87.9347 16.774 87.9612C16.8323 87.9824 16.8853 87.9665 16.9437 87.9135L19.5741 85.0444C19.6324 84.9861 19.712 84.9595 19.8127 84.9595H21.0696C21.1969 84.9595 21.2552 85.0126 21.2552 85.1133C21.2552 85.1346 21.2499 85.1611 21.2287 85.1876C21.2128 85.2141 21.1916 85.2406 21.1704 85.2618L18.9271 87.6748C18.8581 87.7544 18.8794 87.8127 18.996 87.8445C19.1074 87.8551 19.2135 87.8657 19.3089 87.8763C19.4044 87.8869 19.4998 87.9029 19.59 87.9294C19.9082 88.0089 20.1734 88.1309 20.3908 88.2953C20.6029 88.4597 20.7779 88.6559 20.9105 88.8893C21.0378 89.1226 21.1385 89.3772 21.1969 89.6635C21.2605 89.9446 21.303 90.2469 21.3242 90.5651L21.3931 92.1083C21.3825 92.2886 21.303 92.3841 21.1492 92.3841Z" fill="#475658"/>
<path d="M27.736 90.1673C27.736 89.8651 27.6299 89.6052 27.4231 89.3825C27.2162 89.165 26.898 89.0537 26.4685 89.0537H24.6282C24.5858 89.0537 24.5593 89.0855 24.5593 89.1544V91.1272C24.5593 91.1856 24.5858 91.2121 24.6441 91.2121H26.5215C26.9033 91.2121 27.2003 91.1166 27.4178 90.9151C27.6299 90.7242 27.736 90.4696 27.736 90.1673ZM27.5132 87.0278C27.5132 86.7467 27.4071 86.5187 27.2003 86.349C26.9935 86.174 26.6965 86.0891 26.3147 86.0891H24.6601C24.6017 86.0891 24.5752 86.105 24.5699 86.1422C24.5646 86.174 24.5593 86.2164 24.5593 86.2588V87.9082C24.5593 87.9877 24.5911 88.0248 24.6601 88.0248H26.3306C26.7124 88.0248 27.0041 87.9241 27.2056 87.7331C27.4125 87.5316 27.5132 87.2983 27.5132 87.0278ZM29.0459 90.1886C29.0459 90.8568 28.8231 91.3924 28.383 91.7901C27.9428 92.1879 27.3329 92.3841 26.548 92.3841H23.4562C23.2865 92.3841 23.2017 92.3099 23.2017 92.1614V85.1664C23.2017 85.108 23.2176 85.0603 23.2441 85.0126C23.2706 84.9648 23.3396 84.9436 23.4403 84.9436H26.3783C27.1473 84.9436 27.7466 85.1239 28.1761 85.4793C28.6057 85.8346 28.8231 86.3331 28.8231 86.9801C28.8231 87.2399 28.7542 87.5051 28.611 87.7756C28.4678 88.046 28.2663 88.2635 28.0064 88.4173C27.9852 88.4279 27.9693 88.4438 27.964 88.4597C27.9587 88.4756 27.9799 88.4968 28.0223 88.518C28.3829 88.6771 28.6428 88.9105 28.8019 89.2234C28.9663 89.5416 29.0459 89.8598 29.0459 90.1886Z" fill="#475658"/>
<path d="M32.1854 89.8545C32.1854 90.2734 32.3074 90.6287 32.5566 90.9151C32.8059 91.2015 33.193 91.35 33.7127 91.35C34.1794 91.35 34.5453 91.2068 34.8158 90.9257C35.0863 90.6446 35.2241 90.2893 35.2241 89.8545C35.2241 89.4355 35.1022 89.0802 34.8582 88.7938C34.6143 88.5074 34.2271 88.3589 33.6968 88.3589C33.2301 88.3589 32.8642 88.5021 32.5937 88.7832C32.3233 89.0696 32.1854 89.4249 32.1854 89.8545ZM30.9126 89.8863C30.9126 89.5257 30.9709 89.1862 31.0929 88.868C31.2096 88.5498 31.3846 88.2741 31.6179 88.046C31.8513 87.8127 32.1377 87.6324 32.4771 87.4945C32.8165 87.3566 33.2142 87.293 33.665 87.293C34.1635 87.293 34.609 87.399 35.0067 87.6165C35.0863 87.6642 35.1552 87.6748 35.2188 87.6589C35.2825 87.643 35.3143 87.5847 35.3143 87.4786V87.3248C35.3143 86.874 35.1976 86.5399 34.9643 86.3225C34.731 86.1104 34.3438 85.999 33.8029 85.999C33.7021 85.999 33.5695 86.0096 33.4104 86.0308C33.2513 86.052 33.0922 86.0838 32.9278 86.1157C32.7634 86.1475 32.599 86.1899 32.4452 86.2429C32.2861 86.296 32.1589 86.349 32.0528 86.402C31.9255 86.4604 31.8407 86.4232 31.7982 86.3013L31.5119 85.5535C31.48 85.4421 31.5066 85.3679 31.5967 85.3308C31.9043 85.1717 32.2702 85.0497 32.6998 84.9595C33.1294 84.8694 33.5483 84.8217 33.9567 84.8217C34.4764 84.8217 34.9113 84.8853 35.2666 85.0073C35.6166 85.1292 35.8977 85.3149 36.1098 85.5535C36.3166 85.7922 36.4651 86.0785 36.55 86.4126C36.6348 86.7467 36.6772 87.118 36.6772 87.5263V92.2144C36.6772 92.3258 36.6242 92.3841 36.5234 92.3841H35.5901C35.4893 92.3841 35.4363 92.3364 35.4363 92.2462V91.9386C35.4363 91.8591 35.4151 91.8114 35.3673 91.8007C35.3196 91.7901 35.2719 91.8114 35.2135 91.8697C34.9855 92.0977 34.7309 92.2568 34.4393 92.347C34.1529 92.4371 33.84 92.4849 33.5165 92.4849C32.668 92.4849 32.021 92.2462 31.5808 91.7689C31.13 91.2969 30.9126 90.6712 30.9126 89.8863Z" fill="#475658"/>
<path d="M43.6459 87.6748C43.6459 87.2028 43.508 86.8104 43.2323 86.4975C42.9565 86.1899 42.5481 86.0308 42.0178 86.0308C41.5405 86.0308 41.1534 86.1846 40.8458 86.4975C40.5382 86.8104 40.3897 87.1922 40.3897 87.6589V89.6582C40.3897 90.1196 40.5382 90.5174 40.8405 90.8409C41.1428 91.1697 41.5352 91.3341 42.0231 91.3341C42.5216 91.3341 42.9194 91.175 43.2111 90.8515C43.5027 90.528 43.6512 90.1302 43.6512 89.6582V87.6748H43.6459ZM45.0036 89.6529C45.0036 90.0507 44.9346 90.4219 44.802 90.7666C44.6695 91.1113 44.4785 91.4136 44.2346 91.6735C43.9906 91.9333 43.7043 92.1402 43.3701 92.2833C43.036 92.4318 42.6754 92.5061 42.2777 92.5061C41.8375 92.5061 41.4981 92.4531 41.2542 92.347C41.0102 92.2409 40.8193 92.1189 40.6708 91.9811C40.5806 91.9015 40.5117 91.8803 40.4587 91.9227C40.4056 91.9652 40.3844 92.0182 40.3844 92.0818V95.2903C40.3844 95.4017 40.3314 95.46 40.2306 95.46H39.1753C39.0745 95.46 39.0215 95.407 39.0215 95.3062V85.1027C39.0215 85.002 39.0745 84.9489 39.1753 84.9489H40.1086C40.22 84.9489 40.2784 85.002 40.2784 85.1027V85.4581C40.2784 85.527 40.3049 85.5588 40.3632 85.5535C40.4215 85.5482 40.4799 85.5111 40.5488 85.4421C40.6973 85.3202 40.9147 85.1929 41.2011 85.0603C41.4875 84.933 41.8481 84.8641 42.2777 84.8641C43.0891 84.8641 43.7467 85.1027 44.2505 85.5853C44.7543 86.0679 45.0036 86.7521 45.0036 87.6483V89.6529Z" fill="#475658"/>
<path d="M51.8979 86.0838H50.047C49.9993 86.0838 49.9728 86.0997 49.9515 86.1369C49.9356 86.1687 49.925 86.2058 49.925 86.2376V92.1455C49.925 92.2356 49.9091 92.2992 49.8826 92.3311C49.8561 92.3629 49.7978 92.3841 49.7076 92.3841H48.8167C48.647 92.3841 48.5674 92.3099 48.5674 92.1614V86.2323C48.5674 86.1316 48.525 86.0785 48.4295 86.0785H46.6476C46.5575 86.0785 46.4938 86.0626 46.4514 86.0361C46.409 86.0096 46.3931 85.9459 46.3931 85.8558V85.1611C46.3931 85.0126 46.4779 84.9383 46.6476 84.9383H51.8925C52.0622 84.9383 52.1471 85.0073 52.1471 85.1452V85.8611C52.1577 86.0096 52.0729 86.0838 51.8979 86.0838Z" fill="#475658"/>
<path d="M53.7007 85.1186C53.7007 85.0073 53.7749 84.9489 53.9234 84.9489H54.8409C54.931 84.9489 54.9841 84.9648 55 85.002C55.0159 85.0338 55.0265 85.0815 55.0265 85.1399V89.9976C55.0265 90.1355 55.0583 90.1567 55.1273 90.0666L56.0447 88.5552L58.1342 85.2088C58.1925 85.1186 58.2456 85.055 58.2933 85.0126C58.3463 84.9702 58.4312 84.9542 58.5585 84.9542H59.3221C59.4123 84.9542 59.4706 84.9701 59.4971 85.0073C59.5237 85.0391 59.5396 85.0868 59.5396 85.1452V92.2091C59.5396 92.3311 59.4759 92.3947 59.354 92.3947H58.3835C58.3039 92.3947 58.2509 92.3841 58.2244 92.3629C58.1978 92.3417 58.1819 92.2833 58.1819 92.1932V87.2824C58.1819 87.224 58.1713 87.2028 58.1554 87.2081C58.1395 87.2134 58.1183 87.2293 58.0971 87.2506L57.2327 88.693L55.0583 92.1932C54.9894 92.3152 54.931 92.3841 54.8886 92.3894C54.8409 92.3947 54.7932 92.4 54.7348 92.4H53.9181C53.828 92.4 53.7696 92.3894 53.7431 92.3682C53.7166 92.347 53.7007 92.2886 53.7007 92.1985V85.1186Z" fill="#475658"/>
<path d="M66.455 87.6748C66.455 87.2028 66.3171 86.8104 66.0414 86.4975C65.7656 86.1899 65.3572 86.0308 64.8269 86.0308C64.3496 86.0308 63.9625 86.1846 63.6549 86.4975C63.3473 86.8104 63.1988 87.1922 63.1988 87.6589V89.6582C63.1988 90.1196 63.3473 90.5174 63.6496 90.8409C63.9519 91.1697 64.3443 91.3341 64.8322 91.3341C65.3307 91.3341 65.7285 91.175 66.0202 90.8515C66.3118 90.528 66.4603 90.1302 66.4603 89.6582V87.6748H66.455ZM67.8126 89.6529C67.8126 90.0507 67.7437 90.4219 67.6111 90.7666C67.4732 91.1113 67.2876 91.4136 67.0437 91.6735C66.7997 91.9333 66.5134 92.1402 66.1792 92.2833C65.8451 92.4318 65.4845 92.5061 65.0868 92.5061C64.6466 92.5061 64.3072 92.4531 64.0633 92.347C63.8193 92.2409 63.6284 92.1189 63.4799 91.9811C63.3897 91.9015 63.3208 91.8803 63.2678 91.9227C63.2147 91.9652 63.1935 92.0182 63.1935 92.0818V95.2903C63.1935 95.4017 63.1405 95.46 63.0397 95.46H61.9844C61.8836 95.46 61.8306 95.407 61.8306 95.3062V85.1027C61.8306 85.002 61.8836 84.9489 61.9844 84.9489H62.9177C63.0291 84.9489 63.0875 85.002 63.0875 85.1027V85.4581C63.0875 85.527 63.114 85.5588 63.1723 85.5535C63.2306 85.5482 63.289 85.5111 63.3579 85.4421C63.5064 85.3202 63.7238 85.1929 64.0102 85.0603C64.2966 84.933 64.6572 84.8641 65.0868 84.8641C65.8982 84.8641 66.5558 85.1027 67.0596 85.5853C67.5634 86.0679 67.8126 86.7521 67.8126 87.6483V89.6529Z" fill="#475658"/>
</svg>
