<svg width="101" height="116" viewBox="0 0 101 116" fill="none" xmlns="http://www.w3.org/2000/svg">
<path d="M80.764 7.76999C78.0451 5.04463 74.4782 3.67871 70.9113 3.67871C67.3444 3.67871 63.7775 5.04463 61.0586 7.76999L50.306 18.5484L40.1037 8.32024C37.3849 5.59488 33.8179 4.22896 30.251 4.22896C26.6841 4.22896 23.1172 5.59488 20.3983 8.32024C16.3718 11.9843 16.3135 18.1341 16.3135 18.1341L16.2876 58.9368C16.2876 61.6557 17.8412 63.2741 20.4501 63.2741H32.6527C35.6823 63.2741 36.7828 61.0407 36.7828 59.5453V44.2095C41.2431 48.4562 46.3442 53.3243 47.2829 54.2694C48.1633 55.1563 49.1279 56.0237 50.3967 56.0626C50.429 56.0626 51.6655 56.3798 53.8665 54.1788C54.9282 53.1106 59.7186 48.3332 64.2177 43.8405V59.5453C64.2177 61.0472 65.3182 63.2741 68.3413 63.2741H80.5439C83.1463 63.2741 84.7064 61.6492 84.7064 58.9368C84.7064 58.9368 84.7323 17.8299 84.7323 17.5903C84.7453 13.9975 83.4959 10.5083 80.764 7.76999Z" fill="white"/>
<path d="M80.764 7.76999C78.0451 5.04463 74.4782 3.67871 70.9113 3.67871C67.3444 3.67871 63.7775 5.04463 61.0586 7.76999L50.306 18.5484L40.1037 8.32024C37.3849 5.59488 33.8179 4.22896 30.251 4.22896C26.6841 4.22896 23.1172 5.59488 20.3983 8.32024C16.3718 11.9843 16.3135 18.1341 16.3135 18.1341L16.2876 58.9368C16.2876 61.6557 17.8412 63.2741 20.4501 63.2741H32.6527C35.6823 63.2741 36.7828 61.0407 36.7828 59.5453V44.2095C41.2431 48.4562 46.3442 53.3243 47.2829 54.2694C48.1633 55.1563 49.1279 56.0237 50.3967 56.0626C50.429 56.0626 51.6655 56.3798 53.8665 54.1788C54.9282 53.1106 59.7186 48.3332 64.2177 43.8405V59.5453C64.2177 61.0472 65.3182 63.2741 68.3413 63.2741H80.5439C83.1463 63.2741 84.7064 61.6492 84.7064 58.9368C84.7064 58.9368 84.7323 17.8299 84.7323 17.5903C84.7453 13.9975 83.4959 10.5083 80.764 7.76999Z" stroke="white" stroke-width="6.7" stroke-miterlimit="10"/>
<path d="M81.502 20.7169C81.5602 20.5162 81.6185 20.3091 81.6638 20.1019C81.6638 20.1019 81.6638 20.1019 81.6638 20.0955C81.6638 20.0955 81.6638 20.0955 81.6638 20.1019C81.6185 20.3091 81.5602 20.5098 81.502 20.7169Z" fill="#475658"/>
<path d="M78.6148 10.036C78.4141 9.8353 78.2004 9.64757 77.9868 9.46631C78.2004 9.65404 78.4141 9.8353 78.6148 10.036C80.7187 12.1399 81.8774 14.9364 81.8774 17.9078C81.8774 18.0696 81.8515 18.2315 81.8321 18.3933C81.8515 18.2315 81.8774 18.0761 81.8774 17.9078C81.8774 14.9364 80.7187 12.1399 78.6148 10.036Z" fill="#475658"/>
<path d="M78.6991 25.682C78.6667 25.7143 78.6409 25.7467 78.6085 25.7791L74.6985 29.6891C72.8276 31.0744 70.523 31.8383 68.1861 31.8383C67.5452 31.8383 66.9173 31.7606 66.3023 31.6506C64.9882 31.424 63.7517 30.945 62.6124 30.2588C62.5347 30.2134 62.444 30.1746 62.3664 30.1293C61.9521 29.8639 61.5766 29.5531 61.2011 29.2295C60.9616 29.0288 60.7092 28.8605 60.4826 28.6404L60.1265 28.2843L58.6959 26.8537L52.3583 20.5161L62.8519 10.0225C64.9558 7.91858 67.7523 6.75982 70.7237 6.75982C75.5141 6.75982 78.4013 9.8218 78.602 10.0225C79.5601 10.9806 80.311 12.0875 80.8548 13.2851C81.0037 13.6153 81.1396 13.9519 81.2562 14.2885C81.651 15.4344 81.8647 16.6514 81.8647 17.8943C81.8711 18.0756 82.1624 22.2251 78.6991 25.682ZM81.7805 58.5093C81.7805 59.9529 81.2367 60.2248 80.2333 60.2248H68.2055C66.9885 60.2248 66.7101 59.6033 66.6907 59.1113V41.3738H66.6842C69.8821 38.1759 78.3301 29.7279 80.0974 27.9607C80.7577 27.3004 81.3015 26.6142 81.774 25.928V58.5093H81.7805ZM52.1382 52.0293C51.1283 53.0391 50.7593 53.1492 50.604 53.1362C50.3774 53.1298 49.9695 52.7414 49.2639 52.1199C43.6578 47.2324 22.8001 26.3293 22.8001 26.3293C16.6956 19.2796 20.6962 12.6831 22.8001 10.5792C24.904 8.4753 27.7006 7.31654 30.6784 7.31654C33.6562 7.31654 36.4528 8.4753 38.5502 10.5792L58.5599 30.5889C61.7967 33.8257 66.3282 35.2693 68.9629 35.2693C64.5221 39.6778 53.7889 50.372 52.1382 52.0293ZM34.556 59.1048C34.556 59.3638 34.446 60.2183 33.0412 60.2183H21.0134C20.01 60.2183 19.4662 59.9464 19.4662 58.5028V26.3293C19.5051 26.3746 19.5375 26.407 19.5375 26.407C19.9712 27.0155 20.4178 27.6111 20.9681 28.1549L30.2253 37.412L30.1864 37.4509C30.2123 37.4768 30.7885 38.0205 31.7142 38.8945L34.5625 41.7428V59.1048H34.556ZM80.447 8.20342C77.7669 5.52337 74.2518 4.18335 70.7367 4.18335C67.2215 4.18335 63.7129 5.52337 61.0264 8.20342L50.4292 18.8006L40.3758 8.74719C37.6957 6.06715 34.1806 4.72713 30.6654 4.72713C27.1503 4.72713 23.6352 6.06715 20.9551 8.74719C16.9869 12.353 16.9351 18.3992 16.9351 18.3992H16.9092V58.5093C16.9092 61.1829 18.4434 62.7753 21.0069 62.7753H33.0348C36.0191 62.7753 37.1001 60.5808 37.1001 59.1048V44.028C41.4957 48.2034 46.5192 52.9938 47.4513 53.9195C48.3188 54.787 49.2704 55.6415 50.5198 55.6803C50.5522 55.6803 51.7757 55.9975 53.9378 53.8289C54.9865 52.7802 59.6993 48.0804 64.1401 43.659V59.1048C64.1401 60.5808 65.2212 62.7753 68.2055 62.7753H80.2333C82.8033 62.7753 84.3311 61.1829 84.3311 58.5093C84.3311 58.5093 84.357 18.095 84.357 17.8619C84.3699 14.3274 83.14 10.8964 80.447 8.20342Z" fill="#475658"/>
<path d="M80.8677 13.2981C81.0166 13.6282 81.1525 13.9649 81.269 14.3015C81.1525 13.9584 81.0166 13.6218 80.8677 13.2981Z" fill="#D44B4B"/>
<path d="M58.7017 26.8674L60.1389 28.298L52.3706 20.5298L58.7017 26.8674Z" fill="#D44B4B"/>
<path d="M81.8705 17.9077C81.8705 16.6583 81.6569 15.4477 81.262 14.3019C81.1455 13.9588 81.0095 13.6222 80.8607 13.2985C80.3169 12.1009 79.566 10.9939 78.6079 10.0359C78.4072 9.83518 75.507 6.77319 70.736 6.77319C67.7582 6.77319 64.9616 7.93195 62.8577 10.0359L52.3706 20.5295L60.1389 28.2977L60.4949 28.6537C60.715 28.8738 60.9739 29.0422 61.2135 29.2428C61.5889 29.56 61.9709 29.8772 62.3787 30.1362C62.4564 30.188 62.547 30.2204 62.6247 30.2657C63.7641 30.9454 65.0005 31.4309 66.3146 31.6575C66.9361 31.7675 67.5575 31.8387 68.1984 31.8387C70.5354 31.8387 72.8399 31.0749 74.7108 29.6895C74.7108 29.6895 78.6791 25.7148 78.705 25.6824C82.1618 22.2255 81.8705 18.076 81.8705 17.9077Z" fill="#D44B4B"/>
<path d="M70.736 6.77319C71.0791 6.77319 71.0791 6.77319 70.736 6.77319C67.7582 6.77319 64.9616 7.93195 62.8577 10.0359L52.3706 20.5295L62.8642 10.0359C64.9681 7.93195 67.7647 6.77319 70.736 6.77319Z" fill="#475658"/>
<path d="M78.6147 25.7846C78.6468 25.7526 78.6724 25.7205 78.7045 25.6885C78.666 25.7141 78.6404 25.7526 78.6147 25.7846Z" fill="#475658"/>
<path d="M77.5205 9.09067C77.4428 9.03241 77.3651 8.98063 77.2874 8.92236C78.7051 10.8321 79.482 13.1237 79.482 15.5448C79.482 15.7843 79.4949 17.4415 78.7699 19.3771C78.2196 20.8725 77.3781 22.2579 76.2193 23.4231L72.3093 27.3331C70.4384 28.7249 68.1339 29.4823 65.7969 29.4823C65.156 29.4823 64.5281 29.4046 63.9131 29.3011C62.599 29.0745 61.3625 28.589 60.2232 27.9092C60.1455 27.8639 60.0549 27.8251 59.9772 27.7798C59.5629 27.5144 59.1874 27.2036 58.812 26.88C58.6372 26.7375 58.4624 26.6016 58.2876 26.4592L58.7019 26.8735L60.1326 28.3041L60.4886 28.6602C60.7087 28.8803 60.9676 29.0486 61.2072 29.2493C61.5826 29.5665 61.9646 29.8837 62.3724 30.1491C62.4501 30.2009 62.5407 30.2332 62.6184 30.2786C63.7577 30.9583 64.9942 31.4438 66.3083 31.6704C66.9298 31.7804 67.5512 31.8516 68.1921 31.8516C70.5291 31.8516 72.8336 31.0878 74.7045 29.7024L78.6145 25.7924C82.1814 22.2255 81.8772 18.1601 81.8772 17.9206C81.8772 14.9492 80.7184 12.1527 78.6145 10.0488C78.2649 9.69271 77.9024 9.38198 77.5205 9.09067Z" fill="#D44B4B"/>
<path d="M15.161 95.6222H13.0571C12.7335 95.6222 12.5651 95.4798 12.5651 95.1949V86.0931C12.5651 85.996 12.5198 85.996 12.4227 86.0931L11.251 89.2004L9.16653 94.5929C9.08885 94.7483 9.0047 94.8713 8.90759 94.9619C8.81049 95.059 8.66807 95.1043 8.48034 95.1043H7.16621C6.972 95.1043 6.82312 95.0849 6.7066 95.046C6.59007 95.0072 6.48648 94.8842 6.38938 94.6771L4.36318 89.3429L3.22383 86.1514C3.20441 86.132 3.1785 86.119 3.15261 86.1061C3.12024 86.0996 3.10731 86.1126 3.10731 86.1514V95.1949C3.10731 95.4798 2.93252 95.6222 2.5959 95.6222H0.511415C0.168318 95.6222 0 95.4603 0 95.1367V78.5903C0 78.2084 0.200695 78.0206 0.602054 78.0206H2.36932C2.59589 78.0206 2.77715 78.0401 2.90015 78.0789C3.02315 78.1177 3.14614 78.2602 3.25619 78.5062C3.31445 78.655 3.42451 78.9399 3.58635 79.3477C3.74818 79.7555 3.93591 80.2346 4.14306 80.7719C4.35021 81.3157 4.57679 81.8918 4.81631 82.5003C5.05583 83.1088 5.26947 83.685 5.47015 84.2223C5.67083 84.7661 5.85208 85.2386 6.01392 85.6465C6.17576 86.0543 6.28582 86.3327 6.34408 86.488L7.74237 90.2233C7.82005 90.411 7.9042 90.411 8.0013 90.2233C8.04014 90.0873 8.1243 89.8413 8.26024 89.4788C8.38971 89.1163 8.5386 88.7343 8.6875 88.3395C8.84286 87.9381 8.98528 87.5626 9.11475 87.2001C9.24422 86.8376 9.34133 86.5916 9.39959 86.4557L12.481 78.4997C12.6363 78.176 12.9341 78.0142 13.3743 78.0142H15.0769C15.4782 78.0142 15.6789 78.2019 15.6789 78.5838V95.1302C15.6789 95.4603 15.5041 95.6222 15.161 95.6222Z" fill="white"/>
<path d="M24.7806 85.0707L24.0944 81.7886C24.0749 81.7109 24.0426 81.6721 23.9973 81.6591C23.9519 81.6462 23.9131 81.6915 23.9002 81.7886L23.2463 85.0124L22.3595 89.0907C22.34 89.1878 22.34 89.2526 22.3595 89.2914C22.3789 89.3303 22.4436 89.3497 22.5601 89.3497H25.525C25.7128 89.3497 25.771 89.2526 25.6933 89.0649L24.7806 85.0707ZM30.4837 95.0205C30.5226 95.1176 30.5291 95.2406 30.4967 95.3895C30.4643 95.5384 30.3219 95.6161 30.0565 95.6161H27.7454C27.4412 95.6161 27.2535 95.4931 27.1758 95.2471L26.5219 92.3922C26.4831 92.2434 26.4378 92.1333 26.3925 92.0815C26.3472 92.0233 26.263 91.9974 26.1465 91.9974H21.9257C21.7704 91.9974 21.6797 92.0362 21.6409 92.1139C21.6021 92.1916 21.5632 92.2757 21.5244 92.3728C21.4855 92.5217 21.4402 92.7289 21.3819 92.9878C21.3237 93.2468 21.2654 93.5186 21.1942 93.8164C21.1295 94.1142 21.0648 94.3926 21.0065 94.658C20.9482 94.9234 20.9029 95.1241 20.8641 95.26C20.8252 95.396 20.754 95.4866 20.6504 95.5449C20.5469 95.6031 20.4368 95.629 20.3203 95.629H18.1258C17.8603 95.629 17.705 95.5708 17.6532 95.4542C17.6079 95.3377 17.6014 95.2082 17.6402 95.0529L21.8027 78.4224C21.8998 78.1569 22.1005 78.021 22.4048 78.021H25.6545C25.784 78.021 25.9005 78.0339 25.9976 78.0663C26.0947 78.0987 26.1594 78.2022 26.1983 78.3965L30.4837 95.0205Z" fill="white"/>
<path d="M42.8356 80.7334H36.4721C36.2843 80.7334 36.1614 80.7722 36.1031 80.8499C36.0448 80.9276 36.0189 81.0312 36.0189 81.1607V95.1694C36.0189 95.4736 35.8636 95.6225 35.5658 95.6225H33.3648C33.0605 95.6225 32.9116 95.4801 32.9116 95.1953V78.4806C32.9116 78.1764 33.0605 78.021 33.3648 78.021H42.842C42.9586 78.021 43.0621 78.0534 43.1528 78.1181C43.2499 78.1828 43.2952 78.2929 43.2952 78.4482V80.2997C43.2887 80.591 43.1398 80.7334 42.8356 80.7334Z" fill="white"/>
<path d="M51.1087 85.0707L50.4225 81.7886C50.4031 81.7109 50.3707 81.6721 50.3254 81.6591C50.2801 81.6462 50.2412 81.6915 50.2283 81.7886L49.5745 85.0124L48.6876 89.0907C48.6682 89.1878 48.6682 89.2526 48.6876 89.2914C48.707 89.3303 48.7717 89.3497 48.8883 89.3497H51.8531C52.0409 89.3497 52.0991 89.2526 52.0215 89.0649L51.1087 85.0707ZM56.8119 95.0205C56.8507 95.1176 56.8572 95.2406 56.8248 95.3895C56.7989 95.5384 56.65 95.6161 56.3846 95.6161H54.0736C53.7693 95.6161 53.5816 95.4931 53.5039 95.2471L52.8501 92.3922C52.8112 92.2434 52.7659 92.1333 52.7206 92.0815C52.6753 92.0233 52.5911 91.9974 52.4746 91.9974H48.2539C48.0985 91.9974 48.0079 92.0362 47.969 92.1139C47.9302 92.1916 47.8913 92.2757 47.8525 92.3728C47.8137 92.5217 47.7683 92.7289 47.7101 92.9878C47.6518 93.2468 47.5936 93.5186 47.5223 93.8164C47.4576 94.1142 47.3929 94.3926 47.3346 94.658C47.2763 94.9234 47.231 95.1241 47.1922 95.26C47.1533 95.396 47.0821 95.4866 46.9786 95.5449C46.875 95.6031 46.7649 95.629 46.6484 95.629H44.4539C44.1885 95.629 44.0331 95.5708 43.9813 95.4542C43.936 95.3377 43.9295 95.2082 43.9684 95.0529L48.1309 78.4224C48.228 78.1569 48.4286 78.021 48.7329 78.021H51.9826C52.1186 78.021 52.2286 78.0339 52.3257 78.0663C52.4228 78.0922 52.4876 78.2022 52.5264 78.3965L56.8119 95.0205Z" fill="white"/>
<path d="M64.1719 77.7358C65.0652 77.7358 65.8614 77.8524 66.5541 78.0919C67.2468 78.3314 67.8294 78.6551 68.2955 79.0629C68.7616 79.4707 69.1176 79.9692 69.3636 80.5454C69.6096 81.128 69.7326 81.7559 69.7326 82.4421C69.7326 83.2189 69.5255 83.9504 69.1047 84.6237C68.6839 85.2969 68.1466 85.7695 67.4798 86.0349C67.441 86.0543 67.4151 86.0802 67.4086 86.1191C67.3957 86.1579 67.4151 86.1967 67.4539 86.2356C68.1596 86.4622 68.7681 86.9283 69.2924 87.6339C69.8168 88.3395 70.0757 89.1746 70.0757 90.1456C70.0757 91.039 69.9204 91.8352 69.6161 92.5279C69.3119 93.2205 68.8846 93.8096 68.3343 94.2952C67.7841 94.7807 67.1303 95.1497 66.3793 95.4086C65.6284 95.6675 64.8063 95.797 63.9129 95.797C63.3627 95.797 62.8124 95.7582 62.2622 95.6805C61.7119 95.6028 61.1876 95.4669 60.6956 95.2662C60.1971 95.0655 59.7375 94.8066 59.3102 94.4829C58.883 94.1592 58.514 93.7384 58.2097 93.227C58.1321 93.0781 58.0997 92.9487 58.1126 92.8386C58.1191 92.735 58.2033 92.625 58.3522 92.5084L59.867 91.395C60.0353 91.2785 60.1777 91.2332 60.2813 91.2526C60.3848 91.272 60.5143 91.3691 60.6697 91.5374C60.9545 91.9194 61.3818 92.243 61.9514 92.5084C62.5211 92.7739 63.1296 92.9098 63.777 92.9098C64.6509 92.9098 65.363 92.6703 65.9003 92.1977C66.4441 91.7252 66.716 91.0843 66.716 90.288C66.716 89.4141 66.4376 88.7409 65.8873 88.2618C65.3371 87.7892 64.6315 87.5497 63.777 87.5497H61.9514C61.6472 87.5497 61.4918 87.3879 61.4918 87.0642V85.407C61.4918 85.2387 61.5177 85.1092 61.576 85.025C61.6342 84.9409 61.7572 84.8956 61.945 84.8956H64.0812C64.7674 84.8956 65.3306 84.6949 65.7773 84.2935C66.224 83.8922 66.4505 83.3613 66.4505 82.6946C66.4505 82.1637 66.2434 81.6847 65.8356 81.2704C65.4277 80.8496 64.7674 80.6425 63.8547 80.6425C63.4533 80.6425 63.0001 80.7331 62.4887 80.9143C61.9773 81.0956 61.4983 81.3934 61.0646 81.8142C60.948 81.9113 60.8121 82.0084 60.6503 82.1119C60.4884 82.2155 60.3331 82.2026 60.1777 82.0666L58.8636 80.869C58.6953 80.7525 58.6111 80.636 58.6176 80.513C58.6305 80.39 58.6693 80.2799 58.747 80.1828C59.4138 79.2895 60.2101 78.6551 61.1422 78.2861C62.0809 77.9236 63.0908 77.7358 64.1719 77.7358Z" fill="white"/>
<path d="M73.2153 78.5065C73.2153 78.1828 73.3966 78.021 73.7591 78.021H75.8695C76.2126 78.021 76.3809 78.1828 76.3809 78.5065V89.2008C76.3809 89.2591 76.3938 89.2849 76.4262 89.272C76.4586 89.2655 76.478 89.2396 76.4974 89.2008C77.4879 87.4335 78.4589 85.6598 79.4105 83.8795C80.3621 82.0993 81.3202 80.3385 82.2912 78.5907C82.4013 78.4029 82.5243 78.2605 82.6602 78.1634C82.7897 78.0663 82.9774 78.021 83.2234 78.021H84.8094C85.1461 78.021 85.3209 78.1828 85.3209 78.5065V95.137C85.3209 95.4607 85.1525 95.6225 84.8094 95.6225H82.7185C82.3819 95.6225 82.2071 95.4607 82.2071 95.137V84.4427C82.2071 84.3845 82.1941 84.3586 82.1812 84.3586H82.1553L82.1294 84.4168C81.1584 86.2035 80.1809 87.9902 79.2034 89.7769C78.2259 91.5636 77.2484 93.3503 76.2773 95.137C76.1414 95.3636 76.0184 95.506 75.9083 95.5513C75.7918 95.5966 75.6105 95.6225 75.3646 95.6225H73.7656C73.4031 95.6225 73.2218 95.4607 73.2218 95.137V78.5065H73.2153Z" fill="white"/>
<path d="M97.7763 78.4479C97.7763 78.1631 97.9382 78.0206 98.2619 78.0206H100.456C100.819 78.0206 101 78.1566 101 78.422V95.169C101 95.4733 100.832 95.6222 100.489 95.6222H98.2942C97.9511 95.6222 97.7828 95.4798 97.7828 95.1949V88.4883C97.7828 88.1647 97.621 88.0028 97.2973 88.0028H92.6493C92.4421 88.0028 92.3062 88.0481 92.2479 88.1323C92.1897 88.2165 92.1638 88.3395 92.1638 88.4883V95.1626C92.1638 95.4668 91.989 95.6157 91.6524 95.6157H89.4578C89.0953 95.6157 88.9141 95.4733 88.9141 95.1885V78.4414C88.9141 78.1566 89.0953 78.0142 89.4578 78.0142H91.6524C91.8077 78.0142 91.9307 78.0401 92.0214 78.0983C92.1185 78.1566 92.1638 78.2602 92.1638 78.4155V84.6625C92.1638 84.8696 92.1897 85.0121 92.235 85.0768C92.2803 85.1415 92.3904 85.1739 92.5651 85.1739H97.3297C97.498 85.1739 97.621 85.1415 97.6857 85.0768C97.7504 85.0121 97.7828 84.8696 97.7828 84.6625V78.4479H97.7763Z" fill="white"/>
<path d="M25.8164 111.567H24.716C24.5218 111.567 24.4246 111.47 24.4246 111.275L24.3211 109.346C24.3081 109.087 24.2693 108.828 24.2045 108.589C24.1398 108.349 24.0362 108.129 23.8938 107.948C23.7514 107.76 23.5507 107.618 23.3047 107.514C23.0587 107.411 22.7415 107.359 22.3725 107.359C21.7252 107.359 21.2267 107.553 20.8901 107.941C20.5535 108.33 20.3852 108.79 20.3852 109.333V111.366C20.3852 111.502 20.3139 111.573 20.178 111.573H18.9157C18.7797 111.573 18.7085 111.508 18.7085 111.385V102.659C18.7085 102.523 18.7732 102.452 18.8962 102.452H20.1845C20.3075 102.452 20.3722 102.517 20.3722 102.64V105.896C20.3722 106.051 20.4046 106.135 20.4758 106.168C20.547 106.194 20.6117 106.174 20.6829 106.109L23.8938 102.607C23.965 102.536 24.0621 102.504 24.1851 102.504H25.7193C25.8747 102.504 25.9459 102.568 25.9459 102.691C25.9459 102.717 25.9394 102.75 25.9135 102.782C25.8941 102.814 25.8682 102.847 25.8423 102.873L23.104 105.818C23.0199 105.915 23.0458 105.986 23.1882 106.025C23.3241 106.038 23.4536 106.051 23.5701 106.064C23.6867 106.077 23.8032 106.097 23.9132 106.129C24.3016 106.226 24.6253 106.375 24.8907 106.576C25.1497 106.776 25.3633 107.016 25.5252 107.301C25.6805 107.585 25.8035 107.896 25.8747 108.246C25.9524 108.589 26.0042 108.958 26.0301 109.346L26.1142 111.23C26.1013 111.45 26.0042 111.567 25.8164 111.567Z" fill="white"/>
<path d="M33.8562 108.861C33.8562 108.492 33.7267 108.174 33.4742 107.902C33.2218 107.637 32.8333 107.501 32.309 107.501H30.0627C30.0109 107.501 29.9785 107.54 29.9785 107.624V110.032C29.9785 110.103 30.0109 110.136 30.0821 110.136H32.3737C32.8398 110.136 33.2023 110.019 33.4678 109.773C33.7267 109.54 33.8562 109.23 33.8562 108.861ZM33.5843 105.028C33.5843 104.685 33.4548 104.407 33.2023 104.2C32.9499 103.986 32.5873 103.882 32.1213 103.882H30.1015C30.0303 103.882 29.9979 103.902 29.9915 103.947C29.985 103.986 29.9785 104.038 29.9785 104.09V106.103C29.9785 106.2 30.0174 106.245 30.1015 106.245H32.1407C32.6068 106.245 32.9628 106.122 33.2088 105.889C33.4613 105.643 33.5843 105.358 33.5843 105.028ZM35.4551 108.886C35.4551 109.702 35.1833 110.356 34.6459 110.841C34.1086 111.327 33.3642 111.567 32.4061 111.567H28.632C28.4249 111.567 28.3213 111.476 28.3213 111.295V102.756C28.3213 102.685 28.3407 102.627 28.3731 102.568C28.4055 102.51 28.4896 102.484 28.6126 102.484H32.199C33.1376 102.484 33.8691 102.704 34.3935 103.138C34.9178 103.572 35.1832 104.18 35.1832 104.97C35.1832 105.287 35.0991 105.611 34.9243 105.941C34.7495 106.271 34.5035 106.537 34.1863 106.724C34.1604 106.737 34.141 106.757 34.1345 106.776C34.1281 106.796 34.1539 106.821 34.2057 106.847C34.6459 107.042 34.9631 107.326 35.1573 107.708C35.358 108.097 35.4551 108.485 35.4551 108.886Z" fill="white"/>
<path d="M39.2875 108.479C39.2875 108.99 39.4364 109.424 39.7407 109.774C40.0449 110.123 40.5175 110.305 41.1519 110.305C41.7216 110.305 42.1683 110.13 42.4984 109.787C42.8286 109.444 42.9969 109.01 42.9969 108.479C42.9969 107.968 42.848 107.534 42.5502 107.184C42.2524 106.835 41.7798 106.654 41.1325 106.654C40.5628 106.654 40.1162 106.828 39.786 107.171C39.4559 107.521 39.2875 107.955 39.2875 108.479ZM37.7339 108.518C37.7339 108.078 37.8051 107.663 37.954 107.275C38.0964 106.887 38.31 106.55 38.5949 106.272C38.8797 105.987 39.2293 105.767 39.6436 105.598C40.0579 105.43 40.5434 105.352 41.0937 105.352C41.7022 105.352 42.2459 105.482 42.7315 105.747C42.8286 105.806 42.9127 105.818 42.9904 105.799C43.0681 105.78 43.1069 105.708 43.1069 105.579V105.391C43.1069 104.841 42.9645 104.433 42.6797 104.168C42.3948 103.909 41.9223 103.773 41.262 103.773C41.139 103.773 40.9771 103.786 40.7829 103.812C40.5887 103.838 40.3945 103.876 40.1938 103.915C39.9931 103.954 39.7925 104.006 39.6047 104.071C39.4105 104.135 39.2552 104.2 39.1257 104.265C38.9703 104.336 38.8668 104.291 38.815 104.142L38.4654 103.229C38.4266 103.093 38.4589 103.002 38.569 102.957C38.9444 102.763 39.3911 102.614 39.9155 102.504C40.4398 102.394 40.9512 102.336 41.4497 102.336C42.0841 102.336 42.6149 102.413 43.0487 102.562C43.4759 102.711 43.819 102.938 44.0779 103.229C44.3304 103.52 44.5117 103.87 44.6153 104.278C44.7188 104.686 44.7706 105.139 44.7706 105.637V111.36C44.7706 111.496 44.7059 111.567 44.5829 111.567H43.4436C43.3206 111.567 43.2558 111.509 43.2558 111.399V111.023C43.2558 110.926 43.2299 110.868 43.1717 110.855C43.1134 110.842 43.0551 110.868 42.9839 110.939C42.7056 111.217 42.3948 111.412 42.0388 111.522C41.6892 111.632 41.3073 111.69 40.9124 111.69C39.8766 111.69 39.0869 111.399 38.5496 110.816C37.9993 110.24 37.7339 109.476 37.7339 108.518Z" fill="white"/>
<path d="M53.2773 105.818C53.2773 105.242 53.1089 104.763 52.7723 104.381C52.4357 104.005 51.9372 103.811 51.2899 103.811C50.7073 103.811 50.2347 103.999 49.8592 104.381C49.4838 104.763 49.3025 105.229 49.3025 105.799V108.239C49.3025 108.802 49.4838 109.288 49.8527 109.683C50.2217 110.084 50.7008 110.285 51.2963 110.285C51.9049 110.285 52.3904 110.09 52.7464 109.696C53.1025 109.301 53.2837 108.815 53.2837 108.239V105.818H53.2773ZM54.9345 108.233C54.9345 108.718 54.8503 109.171 54.6885 109.592C54.5266 110.013 54.2936 110.382 53.9958 110.699C53.698 111.016 53.3484 111.269 52.9406 111.443C52.5328 111.625 52.0926 111.715 51.6071 111.715C51.0698 111.715 50.6555 111.651 50.3577 111.521C50.0599 111.392 49.8268 111.243 49.6456 111.074C49.5355 110.977 49.4514 110.951 49.3866 111.003C49.3219 111.055 49.296 111.12 49.296 111.197V115.114C49.296 115.25 49.2313 115.321 49.1083 115.321H47.82C47.697 115.321 47.6323 115.256 47.6323 115.133V102.678C47.6323 102.555 47.697 102.491 47.82 102.491H48.9594C49.0953 102.491 49.1665 102.555 49.1665 102.678V103.112C49.1665 103.196 49.1989 103.235 49.2701 103.229C49.3413 103.222 49.4126 103.177 49.4967 103.093C49.678 102.944 49.9434 102.788 50.2929 102.626C50.6425 102.471 51.0827 102.387 51.6071 102.387C52.5975 102.387 53.4002 102.678 54.0152 103.267C54.6302 103.856 54.9345 104.692 54.9345 105.786V108.233Z" fill="white"/>
<path d="M63.3499 103.876H61.0906C61.0324 103.876 61 103.895 60.9741 103.941C60.9547 103.98 60.9417 104.025 60.9417 104.064V111.275C60.9417 111.385 60.9223 111.463 60.89 111.502C60.8576 111.541 60.7864 111.567 60.6763 111.567H59.5888C59.3816 111.567 59.2845 111.476 59.2845 111.295V104.057C59.2845 103.934 59.2327 103.87 59.1162 103.87H56.9411C56.8311 103.87 56.7534 103.85 56.7016 103.818C56.6498 103.785 56.6304 103.708 56.6304 103.598V102.75C56.6304 102.568 56.734 102.478 56.9411 102.478H63.3434C63.5506 102.478 63.6542 102.562 63.6542 102.73V103.604C63.6671 103.785 63.5635 103.876 63.3499 103.876Z" fill="white"/>
<path d="M65.5508 102.698C65.5508 102.562 65.6414 102.491 65.8227 102.491H66.9426C67.0526 102.491 67.1174 102.51 67.1368 102.556C67.1562 102.595 67.1692 102.653 67.1692 102.724V108.654C67.1692 108.822 67.208 108.848 67.2922 108.738L68.4121 106.893L70.9626 102.808C71.0339 102.698 71.0986 102.62 71.1569 102.569C71.2216 102.517 71.3252 102.497 71.4805 102.497H72.4127C72.5228 102.497 72.594 102.517 72.6264 102.562C72.6587 102.601 72.6782 102.659 72.6782 102.73V111.353C72.6782 111.502 72.6005 111.58 72.4516 111.58H71.2669C71.1698 111.58 71.1051 111.567 71.0727 111.541C71.0403 111.515 71.0209 111.444 71.0209 111.334V105.339C71.0209 105.268 71.008 105.242 70.9885 105.249C70.9691 105.255 70.9432 105.275 70.9173 105.3L69.8622 107.061L67.208 111.334C67.1238 111.483 67.0526 111.567 67.0008 111.573C66.9426 111.58 66.8843 111.586 66.8131 111.586H65.8162C65.7061 111.586 65.6349 111.573 65.6026 111.547C65.5702 111.522 65.5508 111.45 65.5508 111.34V102.698Z" fill="white"/>
<path d="M81.1195 105.818C81.1195 105.242 80.9512 104.763 80.6146 104.381C80.278 104.005 79.7795 103.811 79.1322 103.811C78.5496 103.811 78.077 103.999 77.7015 104.381C77.326 104.763 77.1448 105.229 77.1448 105.799V108.239C77.1448 108.802 77.3261 109.288 77.695 109.683C78.064 110.084 78.5431 110.285 79.1386 110.285C79.7471 110.285 80.2327 110.09 80.5887 109.696C80.9448 109.301 81.126 108.815 81.126 108.239V105.818H81.1195ZM82.7768 108.233C82.7768 108.718 82.6926 109.171 82.5308 109.592C82.3625 110.013 82.1359 110.382 81.8381 110.699C81.5403 111.016 81.1908 111.269 80.7829 111.443C80.3751 111.625 79.9349 111.715 79.4494 111.715C78.9121 111.715 78.4978 111.651 78.2 111.521C77.9022 111.392 77.6691 111.243 77.4879 111.074C77.3778 110.977 77.2937 110.951 77.229 111.003C77.1642 111.055 77.1383 111.12 77.1383 111.197V115.114C77.1383 115.25 77.0736 115.321 76.9506 115.321H75.6623C75.5394 115.321 75.4746 115.256 75.4746 115.133V102.678C75.4746 102.555 75.5394 102.491 75.6623 102.491H76.8017C76.9376 102.491 77.0089 102.555 77.0089 102.678V103.112C77.0089 103.196 77.0412 103.235 77.1124 103.229C77.1836 103.222 77.2548 103.177 77.339 103.093C77.5203 102.944 77.7857 102.788 78.1352 102.626C78.4848 102.471 78.925 102.387 79.4494 102.387C80.4398 102.387 81.2425 102.678 81.8575 103.267C82.4725 103.856 82.7768 104.692 82.7768 105.786V108.233Z" fill="white"/>
</svg>
