<svg width="27" height="31" viewBox="0 0 27 31" fill="none" xmlns="http://www.w3.org/2000/svg">
<path d="M19.6468 30.3541C19.3744 30.3236 19.1062 30.2635 18.8466 30.1746C13.8968 28.5505 9.50311 25.5287 6.1711 21.4569C2.9196 17.3857 0.896605 12.433 0.346881 7.1979C0.285807 6.54627 0.38991 5.88873 0.649173 5.28854C0.908437 4.68835 1.31414 4.16571 1.82724 3.7709L5.41583 0.934232C5.59881 0.792188 5.80886 0.691036 6.03226 0.637378C6.25566 0.583719 6.48739 0.578759 6.71233 0.622823C6.94501 0.673602 7.16374 0.77592 7.35313 0.922582C7.54252 1.06924 7.69797 1.25669 7.80856 1.47173L11.1922 8.03639C11.3182 8.29053 11.3609 8.5797 11.3139 8.86135C11.267 9.14299 11.1329 9.40224 10.9314 9.60093L8.62683 11.8649C9.23694 13.7864 10.2033 15.5682 11.4734 17.1134C12.7288 18.7081 14.2729 20.0405 16.022 21.0383L18.7649 19.2665C18.9952 19.1185 19.2637 19.0455 19.5348 19.057C19.806 19.0686 20.0668 19.1643 20.2827 19.3313L25.9591 24.0415C26.155 24.1926 26.3148 24.3872 26.4263 24.6107C26.5379 24.8342 26.5985 25.0809 26.6034 25.3323C26.6083 25.5837 26.5575 25.8332 26.4548 26.0622C26.3521 26.2912 26.2002 26.4937 26.0104 26.6545L22.5019 29.5083C22.1031 29.8345 21.6456 30.0771 21.1556 30.2222C20.6656 30.3674 20.1529 30.4122 19.6468 30.3541ZM6.40386 2.24924L2.81527 5.08591C2.5268 5.30645 2.29908 5.59965 2.15453 5.9367C2.00998 6.27375 1.95357 6.64302 1.99085 7.00821C2.49725 11.9196 4.38517 16.5691 7.42646 20.3948C10.5622 24.2257 14.697 27.0682 19.3549 28.5952C19.7073 28.7117 20.083 28.7368 20.4482 28.6683C20.8133 28.5998 21.1566 28.4399 21.4472 28.2028L24.9557 25.349L19.4747 20.8027L16.5283 22.7117C16.4155 22.7842 16.2873 22.8276 16.1547 22.838C16.0221 22.8484 15.8892 22.8254 15.7675 22.7713C13.6129 21.6797 11.7231 20.1138 10.2334 18.1856C8.67665 16.3367 7.55016 14.1504 6.93795 11.7898C6.91656 11.6486 6.9311 11.504 6.98018 11.3698C7.02926 11.2357 7.11123 11.1166 7.21821 11.0239L9.69752 8.5861L6.40386 2.24924Z" fill="#D44B4B"/>
</svg>
